<svg width="80" height="50" viewBox="0 0 80 50" fill="none" xmlns="http://www.w3.org/2000/svg">
<path d="M77.3333 45.4545H74.6667V29.5455C74.6667 28.3399 74.1048 27.1838 73.1046 26.3313C72.1044 25.4789 70.7478 25 69.3333 25H56V4.54545C56 3.33993 55.4381 2.18377 54.4379 1.33133C53.4377 0.478895 52.0812 0 50.6667 0H29.3333C27.9188 0 26.5623 0.478895 25.5621 1.33133C24.5619 2.18377 24 3.33993 24 4.54545V13.6364H10.6667C9.25218 13.6364 7.89562 14.1153 6.89543 14.9677C5.89524 15.8201 5.33333 16.9763 5.33333 18.1818V45.4545H2.66667C1.95942 45.4545 1.28115 45.694 0.781048 46.1202C0.280951 46.5464 0 47.1245 0 47.7273C0 48.33 0.280951 48.9081 0.781048 49.3343C1.28115 49.7606 1.95942 50 2.66667 50H77.3333C78.0406 50 78.7189 49.7606 79.219 49.3343C79.7191 48.9081 80 48.33 80 47.7273C80 47.1245 79.7191 46.5464 79.219 46.1202C78.7189 45.694 78.0406 45.4545 77.3333 45.4545ZM24 45.4545H10.6667V18.1818H24V45.4545ZM44 27.2727C44 27.8755 43.7191 28.4536 43.219 28.8798C42.7189 29.306 42.0406 29.5455 41.3333 29.5455C40.6261 29.5455 39.9478 29.306 39.4477 28.8798C38.9476 28.4536 38.6667 27.8755 38.6667 27.2727V19.0625L38.1767 19.2017C37.8444 19.2961 37.4936 19.3338 37.1443 19.3126C36.7949 19.2915 36.4539 19.2119 36.1407 19.0784C35.8274 18.9449 35.5481 18.7601 35.3186 18.5347C35.0892 18.3092 34.9141 18.0474 34.8033 17.7642C34.6926 17.481 34.6484 17.1821 34.6732 16.8843C34.698 16.5866 34.7914 16.296 34.948 16.029C35.1046 15.762 35.3214 15.524 35.586 15.3284C35.8506 15.1328 36.1578 14.9836 36.49 14.8892L40.49 13.7528C40.8909 13.6389 41.3178 13.6079 41.7355 13.6622C42.1532 13.7165 42.5498 13.8546 42.8926 14.0652C43.2354 14.2758 43.5146 14.5528 43.7071 14.8734C43.8996 15.194 44 15.549 44 15.9091V27.2727ZM69.3333 45.4545H56V29.5455H69.3333V45.4545Z" fill="black"/>
</svg>
