<svg width="851" height="227" viewBox="0 0 851 227" fill="none" xmlns="http://www.w3.org/2000/svg">
<path d="M16.8 86.3C14 86.4 11.6 85.6 9.6 83.9C7.6 82.2 6.6 78.95 6.6 74.15C6.6 70.05 7.55 67.25 9.45 65.75C11.45 64.25 13.9 63.2 16.8 62.6C18.5 62.2 21.1 61.9 24.6 61.7C28.1 61.4 32.1 61.2 36.6 61.1C41.2 60.9 45.8 60.8 50.4 60.8C59.9 60.8 68.85 61.85 77.25 63.95C85.75 65.95 93.25 69.2 99.75 73.7C106.35 78.2 111.5 84.1 115.2 91.4C118.9 98.7 120.75 107.6 120.75 118.1C120.75 122.7 119.95 127.75 118.35 133.25C116.85 138.65 114.45 144.05 111.15 149.45C107.95 154.75 103.75 159.6 98.55 164C93.45 168.4 87.25 171.95 79.95 174.65C72.65 177.25 64.2 178.55 54.6 178.55C51.4 178.55 48.4 178.55 45.6 178.55C42.9 178.65 40.4 178.7 38.1 178.7C35.9 178.8 33.85 178.95 31.95 179.15C26.95 179.55 23 178.9 20.1 177.2C17.3 175.6 16.25 171.9 16.95 166.1C17.15 164.5 17.3 162.05 17.4 158.75C17.5 155.45 17.5 151.7 17.4 147.5C17.4 143.3 17.35 139 17.25 134.6C17.25 130.1 17.2 125.8 17.1 121.7C17.1 117.6 17.1 114.1 17.1 111.2C17.1 108.4 17.15 105.6 17.25 102.8C17.45 100 17.7 97.25 18 94.55C18.4 91.75 18.95 88.95 19.65 86.15L16.8 86.3ZM43.8 155.3C44.1 155.2 44.75 155.15 45.75 155.15C46.85 155.05 48.05 155 49.35 155C50.75 154.9 52.05 154.85 53.25 154.85C54.55 154.85 55.6 154.85 56.4 154.85C61.1 154.85 65.3 154.15 69 152.75C72.7 151.25 75.95 149.3 78.75 146.9C81.55 144.5 83.9 141.75 85.8 138.65C87.7 135.55 89.1 132.3 90 128.9C91 125.5 91.5 122.2 91.5 119C91.5 112.7 90.4 107.1 88.2 102.2C86.1 97.3 82.75 93.35 78.15 90.35C73.65 87.25 67.8 85.4 60.6 84.8C58.5 84.6 56.65 84.5 55.05 84.5C53.45 84.4 52 84.35 50.7 84.35C49.5 84.35 48.35 84.45 47.25 84.65C46.45 87.45 45.8 90.4 45.3 93.5C44.9 96.5 44.6 99.6 44.4 102.8C44.3 106 44.25 109.15 44.25 112.25C44.25 115.65 44.25 119.15 44.25 122.75C44.35 126.35 44.4 130 44.4 133.7C44.5 137.4 44.5 141.1 44.4 144.8C44.3 148.4 44.1 151.9 43.8 155.3ZM134.059 134.6C134.059 130.9 134.209 127.2 134.509 123.5C134.809 119.8 135.109 116.35 135.409 113.15C135.709 109.95 135.909 107.35 136.009 105.35C136.209 100.55 137.659 97.35 140.359 95.75C143.159 94.15 146.209 93.35 149.509 93.35C151.809 93.35 154.059 93.8 156.259 94.7C158.459 95.5 160.259 96.8 161.659 98.6C163.159 100.4 163.809 102.65 163.609 105.35C163.609 106.05 163.509 107.4 163.309 109.4C163.109 111.4 162.909 113.7 162.709 116.3C162.509 118.9 162.309 121.5 162.109 124.1C162.009 126.6 161.959 128.8 161.959 130.7C161.959 137.3 162.109 142.3 162.409 145.7C162.709 149.1 163.309 151.4 164.209 152.6C165.109 153.7 166.459 154.25 168.259 154.25C170.159 154.25 172.109 153.25 174.109 151.25C176.109 149.25 177.959 146.8 179.659 143.9C181.359 140.9 182.759 138 183.859 135.2C184.359 130.9 184.709 126.7 184.909 122.6C185.209 118.4 185.459 114.7 185.659 111.5C185.859 108.3 186.009 106 186.109 104.6C186.709 99.9 188.059 96.9 190.159 95.6C192.259 94.2 194.709 93.5 197.509 93.5C201.709 93.5 205.059 94.3 207.559 95.9C210.159 97.4 212.009 99.4 213.109 101.9C214.309 104.3 214.909 106.85 214.909 109.55C214.909 112.15 214.809 114.6 214.609 116.9C214.409 119.2 214.109 121.4 213.709 123.5C213.309 125.6 212.859 127.6 212.359 129.5C211.859 131.3 211.359 133.05 210.859 134.75C210.559 138.85 210.309 143.1 210.109 147.5C209.909 151.8 209.759 155.6 209.659 158.9C209.659 162.2 209.659 164.35 209.659 165.35C209.859 170.55 208.609 174.1 205.909 176C203.309 177.8 200.059 178.8 196.159 179C191.859 179.1 188.809 178.35 187.009 176.75C185.309 175.15 184.409 172.35 184.309 168.35C184.309 167.95 184.309 167.45 184.309 166.85C184.309 166.15 184.309 165.4 184.309 164.6C184.309 163.7 184.309 162.8 184.309 161.9C181.209 167.4 177.609 171.7 173.509 174.8C169.409 177.9 165.259 179.45 161.059 179.45C155.859 179.45 151.509 178.05 148.009 175.25C144.509 172.45 141.709 168.8 139.609 164.3C137.609 159.8 136.159 154.95 135.259 149.75C134.459 144.55 134.059 139.5 134.059 134.6ZM289.396 97.25C293.796 99.55 297.046 102.1 299.146 104.9C301.246 107.6 302.296 110.2 302.296 112.7C302.296 114.6 301.646 116.4 300.346 118.1C299.046 119.7 297.446 121 295.546 122C293.746 123 291.996 123.5 290.296 123.5C288.796 123.5 287.396 123 286.096 122C284.896 121 283.596 119.85 282.196 118.55C280.896 117.25 279.396 116.1 277.696 115.1C276.096 114.1 274.146 113.6 271.846 113.6C269.146 113.6 266.796 114.15 264.796 115.25C262.896 116.35 261.296 118 259.996 120.2C258.696 122.3 257.696 124.95 256.996 128.15C256.396 131.35 256.096 135.1 256.096 139.4C256.096 141.6 256.296 143.65 256.696 145.55C257.196 147.45 257.896 149.15 258.796 150.65C259.796 152.05 260.996 153.2 262.396 154.1C263.796 154.9 265.396 155.3 267.196 155.3C269.696 155.3 271.796 155 273.496 154.4C275.196 153.7 276.846 152.7 278.446 151.4C280.046 150.1 281.946 148.55 284.146 146.75C287.746 143.65 290.496 142.1 292.396 142.1C293.796 142.1 295.246 142.6 296.746 143.6C298.346 144.6 299.696 146 300.796 147.8C301.896 149.5 302.446 151.45 302.446 153.65C302.446 156.25 301.396 158.75 299.296 161.15C297.196 163.55 294.796 165.75 292.096 167.75C288.296 170.65 284.296 172.85 280.096 174.35C275.996 175.85 271.746 176.6 267.346 176.6C259.446 176.6 252.446 175 246.346 171.8C240.346 168.6 235.646 164.3 232.246 158.9C228.846 153.4 227.146 147.35 227.146 140.75C227.146 133.85 227.996 127.5 229.696 121.7C231.496 115.9 234.146 110.85 237.646 106.55C241.246 102.25 245.696 98.9 250.996 96.5C256.396 94.1 262.696 92.9 269.896 92.9C272.996 92.9 276.346 93.3 279.946 94.1C283.546 94.8 286.696 95.85 289.396 97.25ZM315.906 62.15C316.106 58.75 317.256 56.45 319.356 55.25C321.556 54.05 324.506 53.45 328.206 53.45C330.606 53.45 332.956 53.75 335.256 54.35C337.556 54.85 339.456 55.8 340.956 57.2C342.456 58.6 343.106 60.6 342.906 63.2C342.806 65.4 342.606 68.4 342.306 72.2C342.006 75.9 341.756 79.8 341.556 83.9C340.856 98.4 340.306 112.8 339.906 127.1C339.606 141.3 339.506 155.05 339.606 168.35C339.606 171.55 338.256 173.75 335.556 174.95C332.856 176.15 329.156 176.75 324.456 176.75C322.956 176.75 321.256 176.5 319.356 176C317.456 175.5 315.806 174.6 314.406 173.3C313.006 171.9 312.306 170.05 312.306 167.75C312.306 155.05 312.456 142.7 312.756 130.7C313.156 118.7 313.606 107 314.106 95.6C314.706 84.2 315.306 73.05 315.906 62.15ZM369.756 96.05C370.956 94.95 372.256 94 373.656 93.2C375.056 92.4 376.806 92 378.906 92C381.106 92 382.856 92.25 384.156 92.75C385.556 93.25 387.206 94.5 389.106 96.5C391.206 98.9 392.256 101.35 392.256 103.85C392.256 105.35 391.906 106.7 391.206 107.9C390.606 109 389.606 110.25 388.206 111.65C383.606 115.95 379.056 119.85 374.556 123.35C370.056 126.85 366.606 129.6 364.206 131.6C366.606 135.6 368.456 138.7 369.756 140.9C371.156 143 372.606 145.05 374.106 147.05C376.506 150.15 379.006 152.5 381.606 154.1C384.206 155.7 386.206 156.45 387.606 156.35C389.306 156.35 390.556 156.2 391.356 155.9C392.256 155.6 393.356 155.45 394.656 155.45C398.156 155.45 400.506 156.45 401.706 158.45C402.906 160.45 403.506 162.35 403.506 164.15C403.506 167.25 402.656 169.8 400.956 171.8C399.256 173.7 397.156 175.1 394.656 176C392.156 176.9 389.606 177.35 387.006 177.35C383.506 177.35 380.456 177.15 377.856 176.75C375.356 176.45 373.006 175.85 370.806 174.95C368.606 174.05 366.106 172.8 363.306 171.2C359.006 168.7 354.356 164.25 349.356 157.85C344.356 151.45 339.856 144 335.856 135.5L336.606 123.5C339.606 121.1 343.156 118.25 347.256 114.95C351.356 111.65 355.406 108.3 359.406 104.9C363.506 101.5 366.956 98.55 369.756 96.05ZM462.429 74C462.329 69.2 463.429 65.7 465.729 63.5C468.029 61.3 470.879 60.2 474.279 60.2C476.879 60.2 479.079 60.4 480.879 60.8C482.779 61.1 484.829 61.9 487.029 63.2C488.029 62.8 489.279 62.5 490.779 62.3C492.279 62.1 493.979 61.95 495.879 61.85C497.779 61.75 499.829 61.7 502.029 61.7C509.829 61.7 517.229 62.9 524.229 65.3C531.329 67.6 537.629 71.1 543.129 75.8C548.629 80.4 552.929 86.1 556.029 92.9C559.229 99.6 560.829 107.4 560.829 116.3C560.829 127.3 559.129 136.45 555.729 143.75C552.429 151.05 547.829 156.95 541.929 161.45C536.129 165.85 529.429 169.15 521.829 171.35C514.329 173.55 506.379 175.05 497.979 175.85C489.579 176.55 481.179 176.9 472.779 176.9H471.429C467.529 176.9 464.329 176.15 461.829 174.65C459.429 173.05 458.429 170.35 458.829 166.55C459.429 159.95 459.979 152.55 460.479 144.35C460.979 136.05 461.379 127.65 461.679 119.15C462.079 110.55 462.329 102.35 462.429 94.55C462.629 86.65 462.629 79.8 462.429 74ZM487.179 153.2C497.579 152.9 506.029 151.6 512.529 149.3C519.029 146.9 523.779 143.1 526.779 137.9C529.879 132.6 531.429 125.6 531.429 116.9C531.429 112.1 530.729 107.7 529.329 103.7C528.029 99.7 526.079 96.2 523.479 93.2C520.979 90.2 517.979 87.9 514.479 86.3C510.979 84.7 507.129 83.9 502.929 83.9C501.529 83.9 500.129 83.95 498.729 84.05C497.329 84.05 495.879 84.15 494.379 84.35C492.979 84.55 491.479 84.8 489.879 85.1C489.979 89 489.979 93.2 489.879 97.7C489.779 102.2 489.629 106.8 489.429 111.5C489.329 116.2 489.129 120.95 488.829 125.75C488.629 130.55 488.379 135.3 488.079 140C487.779 144.6 487.479 149 487.179 153.2ZM571.541 140.9C571.541 134.8 572.441 128.9 574.241 123.2C576.041 117.4 578.641 112.25 582.041 107.75C585.441 103.15 589.591 99.5 594.491 96.8C599.491 94.1 605.191 92.75 611.591 92.75C615.791 92.75 619.341 93.45 622.241 94.85C625.141 96.15 627.691 97.95 629.891 100.25C630.391 98.05 631.241 96.2 632.441 94.7C633.741 93.1 636.141 92.3 639.641 92.3C643.741 92.3 647.341 93.25 650.441 95.15C653.541 97.05 655.041 99.4 654.941 102.2C654.841 104.8 654.341 108.45 653.441 113.15C652.541 117.85 651.791 122.45 651.191 126.95C650.991 128.35 650.741 130.1 650.441 132.2C650.141 134.3 649.841 136.4 649.541 138.5C649.341 140.5 649.141 142.25 648.941 143.75C648.841 145.15 648.741 146.9 648.641 149C648.641 151.1 648.891 152.95 649.391 154.55C649.891 156.05 650.841 156.8 652.241 156.8C652.941 156.8 653.541 156.65 654.041 156.35C654.541 156.05 655.091 155.7 655.691 155.3C656.791 154.6 657.691 154.05 658.391 153.65C659.091 153.25 660.091 153.05 661.391 153.05C662.791 153.05 664.091 153.6 665.291 154.7C666.591 155.7 667.541 157.1 668.141 158.9C668.841 160.7 668.841 162.65 668.141 164.75C667.541 166.65 666.041 168.6 663.641 170.6C661.341 172.5 658.641 174.1 655.541 175.4C652.541 176.7 649.591 177.35 646.691 177.35C643.791 177.35 641.091 176.75 638.591 175.55C636.191 174.25 634.141 172.55 632.441 170.45C630.741 168.25 629.541 165.75 628.841 162.95C626.341 166.75 622.891 169.95 618.491 172.55C614.091 175.15 609.191 176.45 603.791 176.45C597.091 176.45 591.341 174.9 586.541 171.8C581.741 168.7 578.041 164.5 575.441 159.2C572.841 153.8 571.541 147.7 571.541 140.9ZM600.191 139.7C600.191 142.4 600.441 144.9 600.941 147.2C601.541 149.5 602.441 151.35 603.641 152.75C604.941 154.15 606.641 154.85 608.741 154.85C610.441 154.85 611.991 154.45 613.391 153.65C614.791 152.75 616.041 151.55 617.141 150.05C618.241 148.55 619.091 146.8 619.691 144.8C620.391 142.5 620.991 140.2 621.491 137.9C622.091 135.5 622.591 133.1 622.991 130.7C623.391 128.3 623.741 125.95 624.041 123.65C624.341 121.25 624.541 118.9 624.641 116.6C623.541 115.5 622.241 114.65 620.741 114.05C619.241 113.35 617.491 113 615.491 113C613.091 113 610.941 113.7 609.041 115.1C607.141 116.4 605.541 118.25 604.241 120.65C602.941 123.05 601.941 125.9 601.241 129.2C600.541 132.4 600.191 135.9 600.191 139.7ZM736.748 101.15C737.548 101.95 738.248 102.95 738.848 104.15C739.548 105.25 739.898 106.55 739.898 108.05C739.898 109.45 739.348 111.1 738.248 113C737.248 114.8 735.948 116.4 734.348 117.8C732.748 119.1 731.048 119.75 729.248 119.75C727.648 119.75 726.348 119.5 725.348 119C724.448 118.5 723.598 117.9 722.798 117.2C721.198 115.8 719.298 114.5 717.098 113.3C714.998 112.1 712.798 111.5 710.498 111.5C709.198 111.5 707.998 111.8 706.898 112.4C705.798 113 705.248 114 705.248 115.4C705.248 117 706.248 118.4 708.248 119.6C710.348 120.8 713.748 122.7 718.448 125.3C722.548 127.5 726.098 129.65 729.098 131.75C732.098 133.75 734.398 136.15 735.998 138.95C737.598 141.75 738.398 145.5 738.398 150.2C738.398 155 737.098 159.45 734.498 163.55C731.898 167.65 728.198 170.95 723.398 173.45C718.698 175.95 713.148 177.2 706.748 177.2C701.248 177.2 695.798 176.6 690.398 175.4C684.998 174.1 680.398 171.85 676.598 168.65C675.698 167.85 674.848 166.95 674.048 165.95C673.348 164.95 672.998 163.55 672.998 161.75C672.998 158.85 673.948 156.15 675.848 153.65C677.848 151.15 679.948 149.9 682.148 149.9C683.048 149.9 683.798 150 684.398 150.2C684.998 150.4 685.648 150.75 686.348 151.25C689.548 153.25 692.498 154.8 695.198 155.9C697.898 157 700.948 157.55 704.348 157.55C706.248 157.55 707.748 157.3 708.848 156.8C710.048 156.3 710.648 155.5 710.648 154.4C710.648 152.7 709.648 151.3 707.648 150.2C705.748 149.1 703.198 147.75 699.998 146.15C693.998 143.25 689.348 140.45 686.048 137.75C682.748 135.05 680.398 132.2 678.998 129.2C677.698 126.2 677.048 122.9 677.048 119.3C677.048 114.3 678.448 109.8 681.248 105.8C684.148 101.8 688.048 98.65 692.948 96.35C697.948 93.95 703.648 92.75 710.048 92.75C714.748 92.75 719.648 93.45 724.748 94.85C729.848 96.15 733.848 98.25 736.748 101.15ZM753.605 61.7C753.705 58.2 754.855 55.85 757.055 54.65C759.255 53.35 762.605 52.7 767.105 52.7C771.805 52.7 775.005 53.6 776.705 55.4C778.505 57.2 779.405 59.2 779.405 61.4C779.405 63.4 779.405 65.4 779.405 67.4C779.405 69.3 779.405 71.75 779.405 74.75C779.405 77.65 779.355 81.65 779.255 86.75C779.255 91.75 779.205 98.4 779.105 106.7C781.005 103.8 783.105 101.35 785.405 99.35C787.805 97.25 790.505 95.65 793.505 94.55C796.505 93.45 799.855 92.9 803.555 92.9C809.455 92.9 814.105 94.1 817.505 96.5C820.905 98.9 823.405 101.9 825.005 105.5C826.605 109.1 827.605 112.85 828.005 116.75C828.505 120.65 828.805 124.1 828.905 127.1C829.105 134.3 828.955 140.35 828.455 145.25C827.955 150.15 827.705 154 827.705 156.8C827.705 159.8 827.805 162.4 828.005 164.6C828.305 166.8 828.505 168.7 828.605 170.3C828.705 172.2 827.705 173.95 825.605 175.55C823.505 177.05 819.905 177.8 814.805 177.8C810.205 177.8 807.055 177.1 805.355 175.7C803.655 174.3 802.605 172 802.205 168.8C802.005 167.1 801.905 164.8 801.905 161.9C802.005 158.9 802.105 155.7 802.205 152.3C802.305 148.8 802.405 145.4 802.505 142.1C802.705 138.7 802.805 135.75 802.805 133.25C802.805 127.45 802.355 123.4 801.455 121.1C800.555 118.7 798.655 117.5 795.755 117.5C793.655 117.5 791.555 118.25 789.455 119.75C787.455 121.25 785.655 123.15 784.055 125.45C782.455 127.65 781.155 130 780.155 132.5C779.855 138.9 779.655 145.15 779.555 151.25C779.455 157.25 779.305 162.45 779.105 166.85C779.005 170.45 777.755 172.95 775.355 174.35C772.955 175.75 769.555 176.45 765.155 176.45C760.555 176.45 757.205 175.8 755.105 174.5C753.005 173.1 751.805 171.35 751.505 169.25C751.105 166.85 750.905 164.35 750.905 161.75C751.005 159.05 751.105 156.45 751.205 153.95C751.405 149.95 751.655 146.15 751.955 142.55C752.355 138.95 752.955 135.05 753.755 130.85C753.555 120.75 753.405 112.1 753.305 104.9C753.205 97.7 753.155 91.7 753.155 86.9C753.155 82 753.155 77.95 753.155 74.75C753.255 71.55 753.305 68.95 753.305 66.95C753.405 64.95 753.505 63.2 753.605 61.7Z" fill="black"/>
<path d="M29.8 86.3C27 86.4 24.6 85.6 22.6 83.9C20.6 82.2 19.6 78.95 19.6 74.15C19.6 70.05 20.55 67.25 22.45 65.75C24.45 64.25 26.9 63.2 29.8 62.6C31.5 62.2 34.1 61.9 37.6 61.7C41.1 61.4 45.1 61.2 49.6 61.1C54.2 60.9 58.8 60.8 63.4 60.8C72.9 60.8 81.85 61.85 90.25 63.95C98.75 65.95 106.25 69.2 112.75 73.7C119.35 78.2 124.5 84.1 128.2 91.4C131.9 98.7 133.75 107.6 133.75 118.1C133.75 122.7 132.95 127.75 131.35 133.25C129.85 138.65 127.45 144.05 124.15 149.45C120.95 154.75 116.75 159.6 111.55 164C106.45 168.4 100.25 171.95 92.95 174.65C85.65 177.25 77.2 178.55 67.6 178.55C64.4 178.55 61.4 178.55 58.6 178.55C55.9 178.65 53.4 178.7 51.1 178.7C48.9 178.8 46.85 178.95 44.95 179.15C39.95 179.55 36 178.9 33.1 177.2C30.3 175.6 29.25 171.9 29.95 166.1C30.15 164.5 30.3 162.05 30.4 158.75C30.5 155.45 30.5 151.7 30.4 147.5C30.4 143.3 30.35 139 30.25 134.6C30.25 130.1 30.2 125.8 30.1 121.7C30.1 117.6 30.1 114.1 30.1 111.2C30.1 108.4 30.15 105.6 30.25 102.8C30.45 100 30.7 97.25 31 94.55C31.4 91.75 31.95 88.95 32.65 86.15L29.8 86.3ZM56.8 155.3C57.1 155.2 57.75 155.15 58.75 155.15C59.85 155.05 61.05 155 62.35 155C63.75 154.9 65.05 154.85 66.25 154.85C67.55 154.85 68.6 154.85 69.4 154.85C74.1 154.85 78.3 154.15 82 152.75C85.7 151.25 88.95 149.3 91.75 146.9C94.55 144.5 96.9 141.75 98.8 138.65C100.7 135.55 102.1 132.3 103 128.9C104 125.5 104.5 122.2 104.5 119C104.5 112.7 103.4 107.1 101.2 102.2C99.1 97.3 95.75 93.35 91.15 90.35C86.65 87.25 80.8 85.4 73.6 84.8C71.5 84.6 69.65 84.5 68.05 84.5C66.45 84.4 65 84.35 63.7 84.35C62.5 84.35 61.35 84.45 60.25 84.65C59.45 87.45 58.8 90.4 58.3 93.5C57.9 96.5 57.6 99.6 57.4 102.8C57.3 106 57.25 109.15 57.25 112.25C57.25 115.65 57.25 119.15 57.25 122.75C57.35 126.35 57.4 130 57.4 133.7C57.5 137.4 57.5 141.1 57.4 144.8C57.3 148.4 57.1 151.9 56.8 155.3ZM147.059 134.6C147.059 130.9 147.209 127.2 147.509 123.5C147.809 119.8 148.109 116.35 148.409 113.15C148.709 109.95 148.909 107.35 149.009 105.35C149.209 100.55 150.659 97.35 153.359 95.75C156.159 94.15 159.209 93.35 162.509 93.35C164.809 93.35 167.059 93.8 169.259 94.7C171.459 95.5 173.259 96.8 174.659 98.6C176.159 100.4 176.809 102.65 176.609 105.35C176.609 106.05 176.509 107.4 176.309 109.4C176.109 111.4 175.909 113.7 175.709 116.3C175.509 118.9 175.309 121.5 175.109 124.1C175.009 126.6 174.959 128.8 174.959 130.7C174.959 137.3 175.109 142.3 175.409 145.7C175.709 149.1 176.309 151.4 177.209 152.6C178.109 153.7 179.459 154.25 181.259 154.25C183.159 154.25 185.109 153.25 187.109 151.25C189.109 149.25 190.959 146.8 192.659 143.9C194.359 140.9 195.759 138 196.859 135.2C197.359 130.9 197.709 126.7 197.909 122.6C198.209 118.4 198.459 114.7 198.659 111.5C198.859 108.3 199.009 106 199.109 104.6C199.709 99.9 201.059 96.9 203.159 95.6C205.259 94.2 207.709 93.5 210.509 93.5C214.709 93.5 218.059 94.3 220.559 95.9C223.159 97.4 225.009 99.4 226.109 101.9C227.309 104.3 227.909 106.85 227.909 109.55C227.909 112.15 227.809 114.6 227.609 116.9C227.409 119.2 227.109 121.4 226.709 123.5C226.309 125.6 225.859 127.6 225.359 129.5C224.859 131.3 224.359 133.05 223.859 134.75C223.559 138.85 223.309 143.1 223.109 147.5C222.909 151.8 222.759 155.6 222.659 158.9C222.659 162.2 222.659 164.35 222.659 165.35C222.859 170.55 221.609 174.1 218.909 176C216.309 177.8 213.059 178.8 209.159 179C204.859 179.1 201.809 178.35 200.009 176.75C198.309 175.15 197.409 172.35 197.309 168.35C197.309 167.95 197.309 167.45 197.309 166.85C197.309 166.15 197.309 165.4 197.309 164.6C197.309 163.7 197.309 162.8 197.309 161.9C194.209 167.4 190.609 171.7 186.509 174.8C182.409 177.9 178.259 179.45 174.059 179.45C168.859 179.45 164.509 178.05 161.009 175.25C157.509 172.45 154.709 168.8 152.609 164.3C150.609 159.8 149.159 154.95 148.259 149.75C147.459 144.55 147.059 139.5 147.059 134.6ZM302.396 97.25C306.796 99.55 310.046 102.1 312.146 104.9C314.246 107.6 315.296 110.2 315.296 112.7C315.296 114.6 314.646 116.4 313.346 118.1C312.046 119.7 310.446 121 308.546 122C306.746 123 304.996 123.5 303.296 123.5C301.796 123.5 300.396 123 299.096 122C297.896 121 296.596 119.85 295.196 118.55C293.896 117.25 292.396 116.1 290.696 115.1C289.096 114.1 287.146 113.6 284.846 113.6C282.146 113.6 279.796 114.15 277.796 115.25C275.896 116.35 274.296 118 272.996 120.2C271.696 122.3 270.696 124.95 269.996 128.15C269.396 131.35 269.096 135.1 269.096 139.4C269.096 141.6 269.296 143.65 269.696 145.55C270.196 147.45 270.896 149.15 271.796 150.65C272.796 152.05 273.996 153.2 275.396 154.1C276.796 154.9 278.396 155.3 280.196 155.3C282.696 155.3 284.796 155 286.496 154.4C288.196 153.7 289.846 152.7 291.446 151.4C293.046 150.1 294.946 148.55 297.146 146.75C300.746 143.65 303.496 142.1 305.396 142.1C306.796 142.1 308.246 142.6 309.746 143.6C311.346 144.6 312.696 146 313.796 147.8C314.896 149.5 315.446 151.45 315.446 153.65C315.446 156.25 314.396 158.75 312.296 161.15C310.196 163.55 307.796 165.75 305.096 167.75C301.296 170.65 297.296 172.85 293.096 174.35C288.996 175.85 284.746 176.6 280.346 176.6C272.446 176.6 265.446 175 259.346 171.8C253.346 168.6 248.646 164.3 245.246 158.9C241.846 153.4 240.146 147.35 240.146 140.75C240.146 133.85 240.996 127.5 242.696 121.7C244.496 115.9 247.146 110.85 250.646 106.55C254.246 102.25 258.696 98.9 263.996 96.5C269.396 94.1 275.696 92.9 282.896 92.9C285.996 92.9 289.346 93.3 292.946 94.1C296.546 94.8 299.696 95.85 302.396 97.25ZM328.906 62.15C329.106 58.75 330.256 56.45 332.356 55.25C334.556 54.05 337.506 53.45 341.206 53.45C343.606 53.45 345.956 53.75 348.256 54.35C350.556 54.85 352.456 55.8 353.956 57.2C355.456 58.6 356.106 60.6 355.906 63.2C355.806 65.4 355.606 68.4 355.306 72.2C355.006 75.9 354.756 79.8 354.556 83.9C353.856 98.4 353.306 112.8 352.906 127.1C352.606 141.3 352.506 155.05 352.606 168.35C352.606 171.55 351.256 173.75 348.556 174.95C345.856 176.15 342.156 176.75 337.456 176.75C335.956 176.75 334.256 176.5 332.356 176C330.456 175.5 328.806 174.6 327.406 173.3C326.006 171.9 325.306 170.05 325.306 167.75C325.306 155.05 325.456 142.7 325.756 130.7C326.156 118.7 326.606 107 327.106 95.6C327.706 84.2 328.306 73.05 328.906 62.15ZM382.756 96.05C383.956 94.95 385.256 94 386.656 93.2C388.056 92.4 389.806 92 391.906 92C394.106 92 395.856 92.25 397.156 92.75C398.556 93.25 400.206 94.5 402.106 96.5C404.206 98.9 405.256 101.35 405.256 103.85C405.256 105.35 404.906 106.7 404.206 107.9C403.606 109 402.606 110.25 401.206 111.65C396.606 115.95 392.056 119.85 387.556 123.35C383.056 126.85 379.606 129.6 377.206 131.6C379.606 135.6 381.456 138.7 382.756 140.9C384.156 143 385.606 145.05 387.106 147.05C389.506 150.15 392.006 152.5 394.606 154.1C397.206 155.7 399.206 156.45 400.606 156.35C402.306 156.35 403.556 156.2 404.356 155.9C405.256 155.6 406.356 155.45 407.656 155.45C411.156 155.45 413.506 156.45 414.706 158.45C415.906 160.45 416.506 162.35 416.506 164.15C416.506 167.25 415.656 169.8 413.956 171.8C412.256 173.7 410.156 175.1 407.656 176C405.156 176.9 402.606 177.35 400.006 177.35C396.506 177.35 393.456 177.15 390.856 176.75C388.356 176.45 386.006 175.85 383.806 174.95C381.606 174.05 379.106 172.8 376.306 171.2C372.006 168.7 367.356 164.25 362.356 157.85C357.356 151.45 352.856 144 348.856 135.5L349.606 123.5C352.606 121.1 356.156 118.25 360.256 114.95C364.356 111.65 368.406 108.3 372.406 104.9C376.506 101.5 379.956 98.55 382.756 96.05ZM475.429 74C475.329 69.2 476.429 65.7 478.729 63.5C481.029 61.3 483.879 60.2 487.279 60.2C489.879 60.2 492.079 60.4 493.879 60.8C495.779 61.1 497.829 61.9 500.029 63.2C501.029 62.8 502.279 62.5 503.779 62.3C505.279 62.1 506.979 61.95 508.879 61.85C510.779 61.75 512.829 61.7 515.029 61.7C522.829 61.7 530.229 62.9 537.229 65.3C544.329 67.6 550.629 71.1 556.129 75.8C561.629 80.4 565.929 86.1 569.029 92.9C572.229 99.6 573.829 107.4 573.829 116.3C573.829 127.3 572.129 136.45 568.729 143.75C565.429 151.05 560.829 156.95 554.929 161.45C549.129 165.85 542.429 169.15 534.829 171.35C527.329 173.55 519.379 175.05 510.979 175.85C502.579 176.55 494.179 176.9 485.779 176.9H484.429C480.529 176.9 477.329 176.15 474.829 174.65C472.429 173.05 471.429 170.35 471.829 166.55C472.429 159.95 472.979 152.55 473.479 144.35C473.979 136.05 474.379 127.65 474.679 119.15C475.079 110.55 475.329 102.35 475.429 94.55C475.629 86.65 475.629 79.8 475.429 74ZM500.179 153.2C510.579 152.9 519.029 151.6 525.529 149.3C532.029 146.9 536.779 143.1 539.779 137.9C542.879 132.6 544.429 125.6 544.429 116.9C544.429 112.1 543.729 107.7 542.329 103.7C541.029 99.7 539.079 96.2 536.479 93.2C533.979 90.2 530.979 87.9 527.479 86.3C523.979 84.7 520.129 83.9 515.929 83.9C514.529 83.9 513.129 83.95 511.729 84.05C510.329 84.05 508.879 84.15 507.379 84.35C505.979 84.55 504.479 84.8 502.879 85.1C502.979 89 502.979 93.2 502.879 97.7C502.779 102.2 502.629 106.8 502.429 111.5C502.329 116.2 502.129 120.95 501.829 125.75C501.629 130.55 501.379 135.3 501.079 140C500.779 144.6 500.479 149 500.179 153.2ZM584.541 140.9C584.541 134.8 585.441 128.9 587.241 123.2C589.041 117.4 591.641 112.25 595.041 107.75C598.441 103.15 602.591 99.5 607.491 96.8C612.491 94.1 618.191 92.75 624.591 92.75C628.791 92.75 632.341 93.45 635.241 94.85C638.141 96.15 640.691 97.95 642.891 100.25C643.391 98.05 644.241 96.2 645.441 94.7C646.741 93.1 649.141 92.3 652.641 92.3C656.741 92.3 660.341 93.25 663.441 95.15C666.541 97.05 668.041 99.4 667.941 102.2C667.841 104.8 667.341 108.45 666.441 113.15C665.541 117.85 664.791 122.45 664.191 126.95C663.991 128.35 663.741 130.1 663.441 132.2C663.141 134.3 662.841 136.4 662.541 138.5C662.341 140.5 662.141 142.25 661.941 143.75C661.841 145.15 661.741 146.9 661.641 149C661.641 151.1 661.891 152.95 662.391 154.55C662.891 156.05 663.841 156.8 665.241 156.8C665.941 156.8 666.541 156.65 667.041 156.35C667.541 156.05 668.091 155.7 668.691 155.3C669.791 154.6 670.691 154.05 671.391 153.65C672.091 153.25 673.091 153.05 674.391 153.05C675.791 153.05 677.091 153.6 678.291 154.7C679.591 155.7 680.541 157.1 681.141 158.9C681.841 160.7 681.841 162.65 681.141 164.75C680.541 166.65 679.041 168.6 676.641 170.6C674.341 172.5 671.641 174.1 668.541 175.4C665.541 176.7 662.591 177.35 659.691 177.35C656.791 177.35 654.091 176.75 651.591 175.55C649.191 174.25 647.141 172.55 645.441 170.45C643.741 168.25 642.541 165.75 641.841 162.95C639.341 166.75 635.891 169.95 631.491 172.55C627.091 175.15 622.191 176.45 616.791 176.45C610.091 176.45 604.341 174.9 599.541 171.8C594.741 168.7 591.041 164.5 588.441 159.2C585.841 153.8 584.541 147.7 584.541 140.9ZM613.191 139.7C613.191 142.4 613.441 144.9 613.941 147.2C614.541 149.5 615.441 151.35 616.641 152.75C617.941 154.15 619.641 154.85 621.741 154.85C623.441 154.85 624.991 154.45 626.391 153.65C627.791 152.75 629.041 151.55 630.141 150.05C631.241 148.55 632.091 146.8 632.691 144.8C633.391 142.5 633.991 140.2 634.491 137.9C635.091 135.5 635.591 133.1 635.991 130.7C636.391 128.3 636.741 125.95 637.041 123.65C637.341 121.25 637.541 118.9 637.641 116.6C636.541 115.5 635.241 114.65 633.741 114.05C632.241 113.35 630.491 113 628.491 113C626.091 113 623.941 113.7 622.041 115.1C620.141 116.4 618.541 118.25 617.241 120.65C615.941 123.05 614.941 125.9 614.241 129.2C613.541 132.4 613.191 135.9 613.191 139.7ZM749.748 101.15C750.548 101.95 751.248 102.95 751.848 104.15C752.548 105.25 752.898 106.55 752.898 108.05C752.898 109.45 752.348 111.1 751.248 113C750.248 114.8 748.948 116.4 747.348 117.8C745.748 119.1 744.048 119.75 742.248 119.75C740.648 119.75 739.348 119.5 738.348 119C737.448 118.5 736.598 117.9 735.798 117.2C734.198 115.8 732.298 114.5 730.098 113.3C727.998 112.1 725.798 111.5 723.498 111.5C722.198 111.5 720.998 111.8 719.898 112.4C718.798 113 718.248 114 718.248 115.4C718.248 117 719.248 118.4 721.248 119.6C723.348 120.8 726.748 122.7 731.448 125.3C735.548 127.5 739.098 129.65 742.098 131.75C745.098 133.75 747.398 136.15 748.998 138.95C750.598 141.75 751.398 145.5 751.398 150.2C751.398 155 750.098 159.45 747.498 163.55C744.898 167.65 741.198 170.95 736.398 173.45C731.698 175.95 726.148 177.2 719.748 177.2C714.248 177.2 708.798 176.6 703.398 175.4C697.998 174.1 693.398 171.85 689.598 168.65C688.698 167.85 687.848 166.95 687.048 165.95C686.348 164.95 685.998 163.55 685.998 161.75C685.998 158.85 686.948 156.15 688.848 153.65C690.848 151.15 692.948 149.9 695.148 149.9C696.048 149.9 696.798 150 697.398 150.2C697.998 150.4 698.648 150.75 699.348 151.25C702.548 153.25 705.498 154.8 708.198 155.9C710.898 157 713.948 157.55 717.348 157.55C719.248 157.55 720.748 157.3 721.848 156.8C723.048 156.3 723.648 155.5 723.648 154.4C723.648 152.7 722.648 151.3 720.648 150.2C718.748 149.1 716.198 147.75 712.998 146.15C706.998 143.25 702.348 140.45 699.048 137.75C695.748 135.05 693.398 132.2 691.998 129.2C690.698 126.2 690.048 122.9 690.048 119.3C690.048 114.3 691.448 109.8 694.248 105.8C697.148 101.8 701.048 98.65 705.948 96.35C710.948 93.95 716.648 92.75 723.048 92.75C727.748 92.75 732.648 93.45 737.748 94.85C742.848 96.15 746.848 98.25 749.748 101.15ZM766.605 61.7C766.705 58.2 767.855 55.85 770.055 54.65C772.255 53.35 775.605 52.7 780.105 52.7C784.805 52.7 788.005 53.6 789.705 55.4C791.505 57.2 792.405 59.2 792.405 61.4C792.405 63.4 792.405 65.4 792.405 67.4C792.405 69.3 792.405 71.75 792.405 74.75C792.405 77.65 792.355 81.65 792.255 86.75C792.255 91.75 792.205 98.4 792.105 106.7C794.005 103.8 796.105 101.35 798.405 99.35C800.805 97.25 803.505 95.65 806.505 94.55C809.505 93.45 812.855 92.9 816.555 92.9C822.455 92.9 827.105 94.1 830.505 96.5C833.905 98.9 836.405 101.9 838.005 105.5C839.605 109.1 840.605 112.85 841.005 116.75C841.505 120.65 841.805 124.1 841.905 127.1C842.105 134.3 841.955 140.35 841.455 145.25C840.955 150.15 840.705 154 840.705 156.8C840.705 159.8 840.805 162.4 841.005 164.6C841.305 166.8 841.505 168.7 841.605 170.3C841.705 172.2 840.705 173.95 838.605 175.55C836.505 177.05 832.905 177.8 827.805 177.8C823.205 177.8 820.055 177.1 818.355 175.7C816.655 174.3 815.605 172 815.205 168.8C815.005 167.1 814.905 164.8 814.905 161.9C815.005 158.9 815.105 155.7 815.205 152.3C815.305 148.8 815.405 145.4 815.505 142.1C815.705 138.7 815.805 135.75 815.805 133.25C815.805 127.45 815.355 123.4 814.455 121.1C813.555 118.7 811.655 117.5 808.755 117.5C806.655 117.5 804.555 118.25 802.455 119.75C800.455 121.25 798.655 123.15 797.055 125.45C795.455 127.65 794.155 130 793.155 132.5C792.855 138.9 792.655 145.15 792.555 151.25C792.455 157.25 792.305 162.45 792.105 166.85C792.005 170.45 790.755 172.95 788.355 174.35C785.955 175.75 782.555 176.45 778.155 176.45C773.555 176.45 770.205 175.8 768.105 174.5C766.005 173.1 764.805 171.35 764.505 169.25C764.105 166.85 763.905 164.35 763.905 161.75C764.005 159.05 764.105 156.45 764.205 153.95C764.405 149.95 764.655 146.15 764.955 142.55C765.355 138.95 765.955 135.05 766.755 130.85C766.555 120.75 766.405 112.1 766.305 104.9C766.205 97.7 766.155 91.7 766.155 86.9C766.155 82 766.155 77.95 766.155 74.75C766.255 71.55 766.305 68.95 766.305 66.95C766.405 64.95 766.505 63.2 766.605 61.7Z" fill="#FFD000"/>
</svg>
